<?xml version="1.0" standalone="no"?>
<!DOCTYPE svg PUBLIC "-//W3C//DTD SVG 20010904//EN"
 "http://www.w3.org/TR/2001/REC-SVG-20010904/DTD/svg10.dtd">
<svg version="1.0" xmlns="http://www.w3.org/2000/svg"
 width="260.000000pt" height="60.000000pt" viewBox="0 0 260.000000 60.000000"
 preserveAspectRatio="xMidYMid meet">

<g transform="translate(0.000000,60.000000) scale(0.100000,-0.100000)"
fill="#000000" stroke="none">
<path d="M743 485 c-38 -16 -53 -42 -53 -92 0 -56 22 -80 88 -98 94 -26 102
-31 102 -64 0 -33 -22 -51 -63 -51 -34 0 -77 36 -77 66 0 21 -5 24 -36 24
l-36 0 7 -36 c13 -72 65 -114 139 -114 79 0 136 45 136 108 0 64 -28 95 -105
113 -89 20 -114 48 -77 82 36 33 112 7 112 -38 0 -10 10 -15 30 -15 26 0 30 4
30 28 0 79 -106 127 -197 87z"/>
<path d="M230 355 c0 -122 -2 -137 -20 -155 -26 -26 -64 -26 -90 0 -18 18 -20
33 -20 150 0 83 -4 130 -10 130 -6 0 -22 -7 -35 -16 -24 -16 -25 -21 -25 -118
0 -119 11 -164 46 -197 22 -20 36 -24 90 -24 110 0 133 43 134 248 l0 117 -35
0 -35 0 0 -135z"/>
<path d="M360 310 l0 -180 35 0 35 0 0 167 c0 91 3 164 6 160 5 -5 43 -270 44
-309 0 -15 10 -18 70 -18 l70 0 0 180 0 180 -35 0 -35 0 0 -167 c0 -91 -3
-163 -7 -159 -5 4 -17 78 -28 164 l-20 157 -68 3 -67 3 0 -181z"/>
<path d="M1020 310 l0 -180 120 0 120 0 0 30 0 30 -85 0 -85 0 0 45 0 45 75 0
75 0 0 30 0 30 -75 0 -75 0 0 45 0 45 80 0 80 0 0 30 0 30 -115 0 -115 0 0
-180z"/>
<path d="M1340 310 l0 -180 120 0 120 0 0 30 0 30 -85 0 -85 0 0 45 0 45 80 0
80 0 0 30 0 30 -80 0 -80 0 0 45 0 45 80 0 80 0 0 30 0 30 -115 0 -115 0 0
-180z"/>
<path d="M1670 310 l0 -180 30 0 30 0 0 75 c0 42 4 75 10 75 5 0 32 -34 60
-75 48 -72 52 -75 90 -75 l39 0 -60 87 c-32 48 -59 90 -59 94 0 3 22 40 48 80
26 41 51 80 56 87 5 9 -3 12 -31 12 -36 0 -40 -4 -87 -75 -27 -41 -52 -75 -57
-75 -5 0 -9 34 -9 75 l0 75 -30 0 -30 0 0 -180z"/>
<path d="M1990 310 l0 -180 120 0 120 0 0 30 0 30 -85 0 -85 0 0 45 0 45 78 0
77 0 0 30 0 30 -77 0 -78 0 0 45 0 45 80 0 80 0 0 30 0 30 -115 0 -115 0 0
-180z"/>
<path d="M2300 460 c0 -20 5 -30 15 -30 13 0 15 -20 15 -120 0 -100 -2 -120
-15 -120 -10 0 -15 -10 -15 -30 l0 -30 90 0 c150 0 170 21 170 181 0 158 -20
179 -170 179 l-90 0 0 -30z m184 -52 c11 -16 16 -46 16 -100 0 -89 -17 -118
-70 -118 l-30 0 0 120 0 120 34 0 c25 0 39 -7 50 -22z"/>
</g>
</svg>
